<svg width="167" height="184" viewBox="0 0 167 184" fill="none" xmlns="http://www.w3.org/2000/svg">
<g clip-path="url(#clip0_118_97)">
<path d="M115.963 37.3296C104.387 35.4756 91.2037 34.4863 77.4744 34.4863C64.9096 34.4863 52.8042 35.3136 41.9702 36.8735C41.9728 36.7066 41.9752 36.5396 41.9826 36.3727C42.2698 26.6816 46.323 17.4877 53.276 10.756C60.2289 4.02428 69.53 0.288845 79.1911 0.348075C88.8523 0.407305 98.1072 4.2565 104.978 11.0729C111.848 17.8894 115.789 27.1323 115.958 36.8262C115.961 36.9956 115.963 37.1626 115.963 37.3296Z" fill="#B62D7F"/>
<g opacity="0.1">
<path opacity="0.1" d="M83.819 0.334245C78.6806 -0.362255 73.4537 0.0325008 68.477 1.49292C63.5003 2.95335 58.885 5.44685 54.9301 8.81183C50.9752 12.1768 47.769 16.3382 45.5193 21.0262C43.2695 25.7142 42.0265 30.8243 41.8708 36.0253C41.8632 36.1923 41.8608 36.3592 41.8584 36.5262C45.077 36.0627 48.4101 35.6656 51.832 35.334C52.2505 26.6694 55.6786 18.4252 61.5214 12.0321C67.3643 5.63895 75.2531 1.50028 83.819 0.334245Z" fill="white"/>
</g>
<path d="M132.149 40.275C126.82 38.8253 121.415 37.6739 115.958 36.8262C107.015 35.4355 97.9998 34.5661 88.9566 34.2222C85.1896 34.0677 81.3531 33.9879 77.4744 33.9879C74.4003 33.9879 71.3509 34.0378 68.3439 34.1375C59.5227 34.399 50.7225 35.1452 41.9827 36.3727C35.513 37.2667 29.1061 38.57 22.8003 40.275C8.09753 44.3542 0 49.8214 0 55.6674C0 61.5134 8.09754 66.9806 22.8003 71.0599C33.1402 73.9305 45.8887 75.8867 59.7795 76.7837C65.5131 77.1575 71.4404 77.3469 77.4744 77.3469C83.5283 77.3469 89.4755 77.155 95.2266 76.7812C107.868 75.9614 119.564 74.2644 129.352 71.7975C129.405 71.7825 129.454 71.7701 129.506 71.7576C130.167 71.5931 130.818 71.4212 131.461 71.2492C131.692 71.1845 131.92 71.1222 132.149 71.0599C132.161 71.0546 132.175 71.0504 132.188 71.0474C132.407 70.9876 132.623 70.9253 132.839 70.8655C133.271 70.7409 133.698 70.6188 134.118 70.4917C134.138 70.4867 134.155 70.4817 134.172 70.4768C134.537 70.3671 134.895 70.2575 135.25 70.1478C135.54 70.0556 135.829 69.9659 136.114 69.8737C136.323 69.8064 136.529 69.7392 136.732 69.6719C136.882 69.622 137.028 69.5747 137.172 69.5249C137.368 69.4601 137.564 69.3928 137.758 69.3255C137.84 69.2981 137.922 69.2707 138.001 69.2408C138.188 69.1785 138.369 69.1137 138.55 69.0489C138.746 68.9791 138.942 68.9069 139.136 68.8371C139.298 68.7798 139.459 68.72 139.618 68.6602C139.752 68.6078 139.884 68.558 140.018 68.5082C140.383 68.3711 140.74 68.2291 141.093 68.0895C141.269 68.0173 141.446 67.9475 141.619 67.8752C141.791 67.8055 141.964 67.7332 142.133 67.6609C142.411 67.5438 142.685 67.4267 142.953 67.3096C143.082 67.2498 143.214 67.1924 143.34 67.1376C143.437 67.0928 143.531 67.0504 143.628 67.0056C143.698 66.9757 143.767 66.9433 143.834 66.9109C144.085 66.7962 144.333 66.6791 144.577 66.562C145.51 66.1135 146.382 65.655 147.191 65.1865C152.27 62.2685 154.949 59.0315 154.949 55.6674C154.949 49.8214 146.851 44.3542 132.149 40.275ZM132.014 70.5814C121.662 73.4546 108.879 75.4107 94.9509 76.3003C89.2868 76.6616 83.4316 76.8485 77.4744 76.8485C71.5372 76.8485 65.7018 76.6641 60.0551 76.3028C46.1047 75.4157 33.3016 73.4596 22.9344 70.5814C8.46504 66.5645 0.496631 61.2692 0.496631 55.6674C0.49744 55.1725 0.559177 54.6795 0.680443 54.1997C1.94675 49.1461 9.73644 44.4165 22.9344 40.7534C29.1926 39.0618 35.5504 37.7659 41.9703 36.8736C50.7627 35.6391 59.6161 34.8904 68.4903 34.6309C71.4504 34.5337 74.4451 34.4855 77.4744 34.4863C81.301 34.4863 85.0853 34.5636 88.8051 34.7131C97.9009 35.0539 106.969 35.9275 115.963 37.3296C121.372 38.1735 126.731 39.3165 132.014 40.7534C145.21 44.4165 152.997 49.1436 154.266 54.1947C154.389 54.6759 154.452 55.1706 154.452 55.6674C154.452 61.2692 146.484 66.5645 132.014 70.5814Z" fill="#3F3D56"/>
<path d="M154.807 55.8942C154.807 59.2234 152.073 62.3731 147.192 65.1865C146.38 65.6549 145.506 66.1134 144.577 66.562C144.333 66.6791 144.085 66.7962 143.834 66.9108C143.767 66.9432 143.698 66.9756 143.628 67.0055C143.531 67.0504 143.437 67.0928 143.34 67.1376C143.214 67.1924 143.082 67.2497 142.953 67.3095C142.685 67.4267 142.411 67.5438 142.133 67.6609C141.965 67.7332 141.791 67.8054 141.619 67.8752C141.446 67.9475 141.269 68.0172 141.093 68.0895C140.74 68.229 140.383 68.3711 140.018 68.5081C139.884 68.558 139.752 68.6078 139.618 68.6601C139.459 68.72 139.298 68.7798 139.136 68.8371C138.943 68.9068 138.746 68.9791 138.55 69.0489C138.369 69.1137 138.188 69.1785 138.001 69.2408C137.922 69.2707 137.84 69.2981 137.758 69.3255C137.564 69.3928 137.368 69.46 137.172 69.5248C137.028 69.5747 136.882 69.622 136.733 69.6719C136.529 69.7391 136.323 69.8064 136.114 69.8737C135.829 69.9659 135.541 70.0556 135.25 70.1478C134.895 70.2575 134.537 70.3671 134.172 70.4767C134.155 70.4817 134.138 70.4867 134.118 70.4917C133.698 70.6188 133.271 70.7409 132.839 70.8655C132.623 70.9253 132.407 70.9876 132.188 71.0474C132.175 71.0504 132.161 71.0546 132.149 71.0598C131.92 71.1221 131.692 71.1844 131.461 71.2492C130.82 71.4187 130.167 71.5906 129.507 71.7576C129.454 71.77 129.405 71.7825 129.353 71.7974C119.83 74.1847 108.146 75.924 95.2167 76.7638C89.5526 77.1301 83.6476 77.3245 77.5813 77.3245C71.4604 77.3245 65.5057 77.1276 59.797 76.7538C25.7181 74.5236 0.355225 66.0312 0.355225 55.8942C0.357908 55.2774 0.451598 54.6644 0.633246 54.0751C0.64816 54.1174 0.663071 54.1573 0.680532 54.1997C4.22388 63.5393 29.3709 71.0873 61.9995 72.9288C66.9981 73.2128 72.1755 73.3599 77.4745 73.3599C82.796 73.3599 87.9931 73.2103 93.0116 72.9263C125.613 71.0773 150.735 63.5268 154.266 54.1947C154.326 54.0452 154.378 53.8957 154.422 53.7462C154.674 54.4343 154.805 55.1612 154.807 55.8942Z" fill="#3F3D56"/>
<path d="M22.7629 53.2119C18.6302 53.2119 14.238 52.3197 14.238 50.666C14.238 49.0123 18.6302 48.1201 22.7629 48.1201C26.8955 48.1201 31.2877 49.0123 31.2877 50.666C31.2877 52.3197 26.8955 53.2119 22.7629 53.2119ZM22.7629 48.6185C18.0317 48.6185 14.7347 49.6976 14.7347 50.666C14.7347 51.6344 18.0317 52.7135 22.7629 52.7135C27.494 52.7135 30.7911 51.6344 30.7911 50.666C30.7911 49.6976 27.494 48.6185 22.7629 48.6185Z" fill="#3F3D56"/>
<path d="M40.3932 64.9238C36.2606 64.9238 31.8684 64.0316 31.8684 62.3779C31.8684 60.7242 36.2606 59.832 40.3932 59.832C44.5259 59.832 48.9181 60.7242 48.9181 62.3779C48.9181 64.0316 44.5259 64.9238 40.3932 64.9238ZM40.3932 60.3303C35.6621 60.3303 32.365 61.4095 32.365 62.3779C32.365 63.3463 35.6621 64.4254 40.3932 64.4254C45.1243 64.4254 48.4215 63.3463 48.4215 62.3779C48.4215 61.4095 45.1244 60.3303 40.3932 60.3303Z" fill="#3F3D56"/>
<path d="M132.022 53.2119C127.889 53.2119 123.497 52.3197 123.497 50.666C123.497 49.0123 127.889 48.1201 132.022 48.1201C136.154 48.1201 140.547 49.0123 140.547 50.666C140.547 52.3197 136.154 53.2119 132.022 53.2119ZM132.022 48.6185C127.29 48.6185 123.993 49.6976 123.993 50.666C123.993 51.6344 127.29 52.7135 132.022 52.7135C136.753 52.7135 140.05 51.6344 140.05 50.666C140.05 49.6976 136.753 48.6185 132.022 48.6185Z" fill="#3F3D56"/>
<path d="M114.391 64.9238C110.259 64.9238 105.866 64.0316 105.866 62.3779C105.866 60.7242 110.259 59.832 114.391 59.832C118.524 59.832 122.916 60.7242 122.916 62.3779C122.916 64.0316 118.524 64.9238 114.391 64.9238ZM114.391 60.3303C109.66 60.3303 106.363 61.4095 106.363 62.3779C106.363 63.3463 109.66 64.4254 114.391 64.4254C119.122 64.4254 122.419 63.3463 122.419 62.3779C122.419 61.4095 119.122 60.3303 114.391 60.3303Z" fill="#3F3D56"/>
<path d="M77.3922 70.406C73.2596 70.406 68.8674 69.5137 68.8674 67.8601C68.8674 66.2064 73.2596 65.3141 77.3922 65.3141C81.5249 65.3141 85.9171 66.2064 85.9171 67.8601C85.9171 69.5137 81.5249 70.406 77.3922 70.406ZM77.3922 65.8125C72.6611 65.8125 69.3641 66.8917 69.3641 67.8601C69.3641 68.8285 72.6611 69.9076 77.3922 69.9076C82.1234 69.9076 85.4205 68.8285 85.4205 67.8601C85.4205 66.8917 82.1234 65.8125 77.3922 65.8125Z" fill="#3F3D56"/>
<path d="M83.6769 122.78C89.4385 122.78 94.1093 118.093 94.1093 112.311C94.1093 106.529 89.4385 101.842 83.6769 101.842C77.9153 101.842 73.2446 106.529 73.2446 112.311C73.2446 118.093 77.9153 122.78 83.6769 122.78Z" fill="#2F2E41"/>
<path d="M79.7099 119.189L74.6326 121.741L76.0517 124.584L81.129 122.033L79.7099 119.189Z" fill="#2F2E41"/>
<path d="M76.7209 124.296C77.022 123.837 76.2789 122.813 75.0612 122.007C73.8434 121.201 72.6122 120.92 72.3111 121.378C72.01 121.836 72.7531 122.861 73.9708 123.667C75.1886 124.472 76.4198 124.754 76.7209 124.296Z" fill="#2F2E41"/>
<path d="M87.644 119.189L86.2249 122.033L91.3021 124.584L92.7213 121.741L87.644 119.189Z" fill="#2F2E41"/>
<path d="M93.3827 123.667C94.6005 122.861 95.3436 121.836 95.0425 121.378C94.7414 120.92 93.5101 121.201 92.2923 122.007C91.0746 122.813 90.3315 123.837 90.6326 124.296C90.9337 124.754 92.165 124.472 93.3827 123.667Z" fill="#2F2E41"/>
<path d="M82.9466 113.328C84.9157 113.328 86.512 111.726 86.512 109.75C86.512 107.774 84.9157 106.172 82.9466 106.172C80.9774 106.172 79.3811 107.774 79.3811 109.75C79.3811 111.726 80.9774 113.328 82.9466 113.328Z" fill="white"/>
<path d="M83.8138 109.064C84.276 108.6 84.2733 107.846 83.8078 107.378C83.3424 106.911 82.5903 106.909 82.1281 107.372C81.6659 107.836 81.6686 108.591 82.1341 109.058C82.5995 109.525 83.3516 109.528 83.8138 109.064Z" fill="#3F3D56"/>
<path d="M91.9065 100.922C92.0634 97.0458 88.7347 93.7629 84.4717 93.5892C80.2087 93.4154 76.6257 96.4165 76.4688 100.292C76.3119 104.168 79.2753 105.049 83.5383 105.222C87.8013 105.396 91.7496 104.797 91.9065 100.922Z" fill="#B62D7F"/>
<path d="M97.9199 117.793C98.6061 117.202 97.6412 114.944 95.7647 112.751C93.8882 110.557 91.8108 109.258 91.1246 109.849C90.4384 110.44 91.4033 112.698 93.2797 114.891C95.1562 117.085 97.2337 118.384 97.9199 117.793Z" fill="#2F2E41"/>
<path d="M74.1031 114.891C75.9796 112.698 76.9445 110.44 76.2583 109.849C75.5721 109.258 73.4946 110.557 71.6181 112.751C69.7416 114.944 68.7767 117.202 69.4629 117.793C70.1491 118.384 72.2266 117.085 74.1031 114.891Z" fill="#2F2E41"/>
<path d="M86.5421 116.436C86.655 117.059 86.5169 117.701 86.1582 118.221C85.7995 118.741 85.2495 119.097 84.6293 119.21C84.0091 119.324 83.3694 119.185 82.851 118.825C82.3326 118.465 81.9779 117.913 81.865 117.291L81.8642 117.286C81.6303 115.99 82.6291 115.531 83.9209 115.297C85.2126 115.062 86.3083 115.14 86.5421 116.436Z" fill="white"/>
<path d="M66.0518 123.447C65.9201 123.447 65.7938 123.394 65.7006 123.301C65.6075 123.208 65.5552 123.081 65.5552 122.949V93.5442C65.5552 93.412 65.6075 93.2853 65.7006 93.1918C65.7938 93.0983 65.9201 93.0458 66.0518 93.0458C66.1835 93.0458 66.3098 93.0983 66.403 93.1918C66.4961 93.2853 66.5484 93.412 66.5484 93.5442V122.949C66.5484 123.081 66.4961 123.208 66.403 123.301C66.3098 123.394 66.1835 123.447 66.0518 123.447Z" fill="#CCCCCC"/>
<path d="M58.6023 149.861C58.4706 149.861 58.3443 149.809 58.2512 149.715C58.158 149.622 58.1057 149.495 58.1057 149.363V127.932C58.1057 127.8 58.158 127.673 58.2512 127.58C58.3443 127.486 58.4706 127.434 58.6023 127.434C58.7341 127.434 58.8604 127.486 58.9535 127.58C59.0467 127.673 59.099 127.8 59.099 127.932V149.363C59.099 149.495 59.0466 149.622 58.9535 149.715C58.8604 149.809 58.7341 149.861 58.6023 149.861Z" fill="#CCCCCC"/>
<path d="M77.7227 132.169C77.591 132.169 77.4647 132.116 77.3715 132.023C77.2784 131.929 77.2261 131.802 77.2261 131.67V102.266C77.2261 102.134 77.2784 102.007 77.3715 101.913C77.4647 101.82 77.591 101.767 77.7227 101.767C77.8544 101.767 77.9807 101.82 78.0739 101.913C78.167 102.007 78.2193 102.134 78.2193 102.266V131.67C78.2193 131.802 78.167 131.929 78.0739 132.023C77.9807 132.116 77.8544 132.169 77.7227 132.169Z" fill="#CCCCCC"/>
<path d="M70.5215 153.35C70.3898 153.35 70.2635 153.297 70.1704 153.204C70.0772 153.11 70.0249 152.983 70.0249 152.851V140.89C70.0249 140.758 70.0772 140.631 70.1704 140.538C70.2635 140.444 70.3898 140.392 70.5215 140.392C70.6533 140.392 70.7796 140.444 70.8727 140.538C70.9658 140.631 71.0182 140.758 71.0182 140.89V152.851C71.0182 152.983 70.9658 153.11 70.8727 153.204C70.7796 153.297 70.6533 153.35 70.5215 153.35Z" fill="#CCCCCC"/>
<path d="M80.7024 92.0491C80.5707 92.0491 80.4444 91.9966 80.3513 91.9031C80.2581 91.8097 80.2058 91.6829 80.2058 91.5507V79.5896C80.2058 79.4574 80.2581 79.3307 80.3513 79.2372C80.4444 79.1438 80.5707 79.0912 80.7024 79.0912C80.8342 79.0912 80.9605 79.1438 81.0536 79.2372C81.1467 79.3307 81.1991 79.4574 81.1991 79.5896V91.5507C81.1991 91.6829 81.1467 91.8097 81.0536 91.9031C80.9605 91.9966 80.8342 92.0491 80.7024 92.0491Z" fill="#CCCCCC"/>
<path d="M55.8709 97.2821C55.7392 97.282 55.6129 97.2295 55.5197 97.1361C55.4266 97.0426 55.3743 96.9158 55.3743 96.7837V84.8226C55.3743 84.6904 55.4266 84.5637 55.5197 84.4702C55.6129 84.3767 55.7392 84.3242 55.8709 84.3242C56.0026 84.3242 56.1289 84.3767 56.2221 84.4702C56.3152 84.5637 56.3675 84.6904 56.3675 84.8226V96.7837C56.3675 96.9158 56.3152 97.0426 56.2221 97.1361C56.1289 97.2295 56.0026 97.282 55.8709 97.2821Z" fill="#CCCCCC"/>
<path d="M99.0779 98.528C98.9462 98.528 98.8199 98.4755 98.7268 98.382C98.6336 98.2886 98.5813 98.1618 98.5813 98.0296V86.0685C98.5813 85.9364 98.6336 85.8096 98.7267 85.7161C98.8199 85.6227 98.9462 85.5702 99.0779 85.5702C99.2096 85.5702 99.336 85.6227 99.4291 85.7161C99.5222 85.8096 99.5746 85.9364 99.5746 86.0685V98.0296C99.5745 98.1618 99.5222 98.2886 99.4291 98.382C99.336 98.4755 99.2096 98.528 99.0779 98.528Z" fill="#CCCCCC"/>
<path d="M98.0845 135.906C97.9528 135.906 97.8265 135.854 97.7334 135.76C97.6402 135.667 97.5879 135.54 97.5879 135.408V120.955C97.5879 120.823 97.6402 120.696 97.7333 120.603C97.8265 120.509 97.9528 120.457 98.0845 120.457C98.2162 120.457 98.3426 120.509 98.4357 120.603C98.5288 120.696 98.5812 120.823 98.5812 120.955V135.408C98.5812 135.54 98.5288 135.667 98.4357 135.76C98.3426 135.854 98.2162 135.906 98.0845 135.906Z" fill="#CCCCCC"/>
<path d="M88.1519 148.615C88.0202 148.615 87.8939 148.563 87.8007 148.469C87.7076 148.376 87.6553 148.249 87.6553 148.117V126.686C87.6553 126.554 87.7076 126.427 87.8007 126.334C87.8939 126.241 88.0202 126.188 88.1519 126.188C88.2836 126.188 88.4099 126.241 88.5031 126.334C88.5962 126.427 88.6485 126.554 88.6485 126.686V148.117C88.6485 148.249 88.5962 148.376 88.5031 148.469C88.4099 148.563 88.2836 148.615 88.1519 148.615Z" fill="#CCCCCC"/>
<path d="M90.1385 111.984C90.0068 111.984 89.8804 111.932 89.7873 111.838C89.6942 111.745 89.6419 111.618 89.6418 111.486V82.0815C89.6418 81.9493 89.6942 81.8226 89.7873 81.7291C89.8804 81.6356 90.0068 81.5831 90.1385 81.5831C90.2702 81.5831 90.3965 81.6356 90.4896 81.7291C90.5828 81.8226 90.6351 81.9493 90.6351 82.0815V111.486C90.6351 111.618 90.5828 111.745 90.4896 111.838C90.3965 111.932 90.2702 111.984 90.1385 111.984Z" fill="#CCCCCC"/>
<path d="M151.024 174.555C151.735 173.958 150.774 171.632 148.878 169.359C146.982 167.087 144.869 165.729 144.158 166.326C143.448 166.924 144.408 169.25 146.304 171.522C148.2 173.794 150.313 175.152 151.024 174.555Z" fill="#2F2E41"/>
<path d="M146.362 171.971C148.23 166.348 145.202 160.27 139.598 158.396C133.995 156.522 127.939 159.561 126.071 165.184C124.203 170.806 127.232 176.884 132.835 178.758C138.438 180.633 144.494 177.594 146.362 171.971Z" fill="#2F2E41"/>
<path d="M140.743 177H137.494V182.841H140.743V177Z" fill="#2F2E41"/>
<path d="M134.245 177H130.996V182.841H134.245V177Z" fill="#2F2E41"/>
<path d="M138.036 183.928C139.531 183.928 140.743 183.472 140.743 182.909C140.743 182.346 139.531 181.89 138.036 181.89C136.54 181.89 135.328 182.346 135.328 182.909C135.328 183.472 136.54 183.928 138.036 183.928Z" fill="#2F2E41"/>
<path d="M131.538 183.792C133.033 183.792 134.245 183.336 134.245 182.773C134.245 182.211 133.033 181.754 131.538 181.754C130.042 181.754 128.83 182.211 128.83 182.773C128.83 183.336 130.042 183.792 131.538 183.792Z" fill="#2F2E41"/>
<path d="M132.859 155.087C133.813 151.228 138.029 148.957 142.273 150.014C146.518 151.072 149.185 155.058 148.23 158.917C147.275 162.776 144.107 162.789 139.862 161.731C135.618 160.673 131.904 158.946 132.859 155.087Z" fill="#CCCCCC"/>
<path d="M129.003 165.897C129.4 165.056 127.559 163.346 124.891 162.076C122.222 160.806 119.737 160.458 119.34 161.298C118.943 162.139 120.784 163.85 123.452 165.12C126.12 166.39 128.605 166.738 129.003 165.897Z" fill="#2F2E41"/>
<path d="M134.618 169.891C136.587 169.891 138.183 168.289 138.183 166.313C138.183 164.337 136.587 162.735 134.618 162.735C132.649 162.735 131.052 164.337 131.052 166.313C131.052 168.289 132.649 169.891 134.618 169.891Z" fill="white"/>
<path d="M133.152 166.223C133.809 166.223 134.341 165.689 134.341 165.03C134.341 164.371 133.809 163.838 133.152 163.838C132.496 163.838 131.964 164.371 131.964 165.03C131.964 165.689 132.496 166.223 133.152 166.223Z" fill="#3F3D56"/>
<path d="M134.587 175.278C135.41 175.278 136.077 174.609 136.077 173.783C136.077 172.957 135.41 172.288 134.587 172.288C133.764 172.288 133.097 172.957 133.097 173.783C133.097 174.609 133.764 175.278 134.587 175.278Z" fill="white"/>
<path d="M166.752 184H108.149C108.083 184 108.02 183.974 107.974 183.927C107.927 183.88 107.901 183.817 107.901 183.751C107.901 183.685 107.927 183.621 107.974 183.575C108.02 183.528 108.083 183.502 108.149 183.502H166.752C166.818 183.502 166.881 183.528 166.927 183.575C166.974 183.621 167 183.685 167 183.751C167 183.817 166.974 183.88 166.927 183.927C166.881 183.974 166.818 184 166.752 184Z" fill="#3F3D56"/>
</g>
<defs>
<clipPath id="clip0_118_97">
<rect width="167" height="184" fill="white"/>
</clipPath>
</defs>
</svg>
