<svg width="300" height="98" viewBox="0 0 300 98" fill="none" xmlns="http://www.w3.org/2000/svg">
<g clip-path="url(#clip0_80_41)">
<path d="M14.5077 76.3171C13.8169 73.4146 13.126 69.1463 14.5077 64.3658C15.3713 61.2927 17.962 58.2195 29.8791 47.4634C39.7236 38.5853 41.6234 37.0488 44.5595 31.5853C47.6684 25.439 47.8411 19.9756 47.8411 18.6097C47.8411 11.2683 44.905 5.80486 43.3506 3.41461C41.7962 5.12193 39.3782 7.6829 36.4421 10.9268C22.9706 25.439 11.9171 36.0244 11.9171 36.0244C3.97232 43.7073 1.89978 45.2439 0.690803 49.1707C-1.72716 57.5366 2.93605 65.3902 3.6269 66.5853C7.08113 72.561 12.2625 75.4634 14.5077 76.3171Z" fill="#B5B5B6"/>
<path d="M57.1675 91C52.5043 86.3903 48.0138 81.6098 43.3505 77C45.5958 75.6342 49.7409 72.3903 52.8497 66.9268C54.2314 64.1951 57.6856 58.2195 55.9585 50.7073C54.7495 45.5854 51.8134 42.1707 50.0863 40.6342C42.8324 47.9756 35.5785 55.3171 28.3246 62.4878C26.7702 64.1951 23.6614 68.122 22.7979 73.9268C22.4524 75.9756 21.5889 83.3171 26.5975 89.8049C27.4611 90.8293 30.3972 94.5854 35.4058 96.4634C42.3143 99.0244 50.7771 96.8049 57.1675 91Z" fill="#B5B5B6"/>
<path d="M107.427 36.7073L106.563 42H95.1642L94.1279 47.9756H102.936L102.073 53.0976H93.2643L91.5372 61.8049C91.3645 63.1708 89.9828 64.1951 88.6011 64.1951H84.4561L88.9466 39.2683C89.1193 37.9025 90.501 36.8781 91.8826 36.8781L107.427 36.7073Z" fill="#404F6C"/>
<path d="M125.734 44.561C127.288 46.0975 128.152 48.1463 128.152 50.7073C128.152 51.2195 128.152 52.0732 127.979 52.9268C127.807 53.6097 127.634 54.1219 127.461 54.6341H112.263C112.263 55.1463 112.263 55.4878 112.263 55.6585C112.263 58.0488 113.472 59.2439 115.717 59.2439C116.753 59.2439 117.617 59.0732 118.307 58.561C118.998 58.0488 119.689 57.3658 120.035 56.6829H127.116C126.252 59.0732 124.698 60.9512 122.625 62.4878C120.553 64.0244 117.962 64.7073 115.199 64.7073C112.435 64.7073 110.19 63.8536 108.463 62.3171C106.736 60.7805 106.045 58.561 106.045 55.8293C106.045 54.9756 106.045 54.1219 106.218 53.2683C106.563 51.0488 107.427 49.1707 108.636 47.4634C109.845 45.7561 111.399 44.561 113.126 43.7073C114.853 42.8536 116.926 42.3414 118.998 42.3414C121.934 42.3414 124.18 43.0244 125.734 44.561ZM121.589 50.5366C121.589 49.5122 121.244 48.6585 120.553 48.1463C119.862 47.6341 118.998 47.2927 118.135 47.2927C116.926 47.2927 115.889 47.6341 114.853 48.3171C113.99 49 113.299 50.0244 112.953 51.561H121.589C121.589 51.3902 121.589 50.878 121.589 50.5366ZM125.216 35.5122C125.043 36.5366 124.352 37.2195 123.489 37.561L114.853 40.9756L115.371 37.9024C115.544 37.0488 116.235 36.1951 117.098 35.8536L126.079 31.9268L125.216 35.5122Z" fill="#404F6C"/>
<path d="M143.351 43.5366C144.732 42.6829 146.287 42.3414 147.841 42.3414L146.632 49.5122H144.732C143.005 49.5122 141.451 49.8536 140.415 50.7073C139.378 51.3902 138.687 52.7561 138.342 54.4634L136.615 64.3658H129.879L133.679 42.6829H140.415L139.724 46.7805C140.587 45.2439 141.796 44.2195 143.351 43.5366Z" fill="#404F6C"/>
<path d="M157.34 42.5121L153.886 61.8048C153.713 63.1707 152.332 64.1951 150.95 64.1951H146.805L150.259 45.0731C150.432 43.7073 151.814 42.6829 153.195 42.6829L157.34 42.5121ZM152.332 34.1463C153.195 33.2926 154.404 32.9512 155.613 32.9512C156.649 32.9512 157.513 33.2926 158.031 33.8048C158.722 34.317 158.895 35 158.895 35.8536C158.895 37.0487 158.377 37.9024 157.513 38.7561C156.649 39.6097 155.613 39.9512 154.232 39.9512C153.195 39.9512 152.332 39.6097 151.641 39.0975C150.95 38.5853 150.777 37.9024 150.777 37.0487C150.95 35.8536 151.468 35 152.332 34.1463Z" fill="#404F6C"/>
<path d="M174.439 43.3659C175.648 44.0488 176.339 45.0732 176.684 46.439L177.375 42.5122H184.111L180.657 61.9756C180.484 63.1707 179.275 64.1951 178.066 64.1951H173.575L174.266 60.2683C173.403 61.6341 172.366 62.6585 170.985 63.3415C169.603 64.0244 168.049 64.5366 166.494 64.5366C164.076 64.5366 162.176 63.8537 160.795 62.3171C159.413 60.7805 158.722 58.7317 158.722 56C158.722 54.9756 158.895 53.9512 159.068 52.9268C159.413 50.7073 160.277 48.8293 161.313 47.2927C162.349 45.7561 163.731 44.561 165.285 43.7073C166.84 42.8537 168.567 42.5122 170.294 42.5122C171.848 42.3415 173.23 42.6829 174.439 43.3659ZM167.703 49.5122C166.667 50.3659 165.976 51.7317 165.631 53.439C165.631 53.9512 165.458 54.2927 165.458 54.6341C165.458 55.8293 165.803 56.8537 166.494 57.5366C167.185 58.2195 168.221 58.561 169.43 58.561C170.812 58.561 172.021 58.0488 173.23 57.1951C174.266 56.1707 174.957 54.9756 175.302 53.439C175.302 52.9268 175.475 52.5854 175.475 52.2439C175.475 51.0488 175.13 50.0244 174.439 49.3415C173.748 48.6585 172.712 48.3171 171.503 48.3171C170.121 48.1463 168.912 48.4878 167.703 49.5122Z" fill="#404F6C"/>
<path d="M202.591 44.2195C204.145 45.5854 205.181 47.4634 205.354 49.6829H198.791C198.791 48.8293 198.446 48.1463 197.755 47.6341C197.064 47.122 196.2 46.9512 195.164 46.9512C194.301 46.9512 193.61 47.122 193.264 47.4634C192.746 47.8049 192.573 48.1463 192.573 48.8293C192.573 49.3415 192.919 49.8537 193.61 50.1951C194.301 50.5366 195.337 50.8781 196.891 51.2195C198.446 51.7317 199.827 52.0732 200.864 52.4146C201.9 52.7561 202.763 53.439 203.454 54.2927C204.145 55.1463 204.491 56.1707 204.491 57.5366C204.491 58.0488 204.491 58.561 204.318 59.0732C203.972 60.7805 203.109 61.9756 201.554 63C200 64.0244 197.928 64.5366 195.164 64.5366C192.228 64.5366 189.81 63.8537 188.083 62.6585C186.356 61.4634 185.32 59.5854 185.32 57.1951H191.883C191.883 58.0488 192.055 58.9024 192.919 59.4146C193.61 59.9268 194.646 60.0976 195.855 60.0976C196.719 60.0976 197.409 59.9268 197.928 59.5854C198.446 59.2439 198.618 58.7317 198.618 58.2195C198.618 57.5366 198.273 57.0244 197.582 56.6829C196.891 56.3415 195.855 56 194.301 55.6585C192.746 55.3171 191.537 54.8049 190.501 54.4634C189.465 54.122 188.601 53.439 187.91 52.7561C187.219 51.9024 186.874 50.8781 186.874 49.6829C186.874 49.3415 186.874 49 187.047 48.3171C187.392 46.6098 188.256 45.4146 189.81 44.2195C191.364 43.1951 193.61 42.6829 196.2 42.6829C198.618 42.3415 201.036 43.0244 202.591 44.2195Z" fill="#404F6C"/>
<path d="M228.843 36.7073L227.979 42H216.58L215.544 47.9756H224.352L223.489 53.0976H214.681L213.126 61.9756C212.953 63.3415 211.744 64.1951 210.363 64.1951H206.045L210.535 39.0976C210.708 37.7317 211.917 36.7073 213.299 36.7073H228.843Z" fill="#404F6C"/>
<path d="M242.314 43.3658C243.523 44.0488 244.214 45.0731 244.56 46.439L245.25 42.5122H251.986L248.532 61.9756C248.359 63.1707 247.15 64.1951 245.941 64.1951H241.451L242.142 60.2683C241.278 61.6341 240.242 62.6585 238.86 63.3414C237.478 64.0244 235.924 64.5366 234.37 64.5366C231.952 64.5366 230.052 63.8536 228.67 62.3171C227.288 60.7805 226.598 58.7317 226.598 56C226.598 54.9756 226.77 53.9512 226.943 52.9268C227.288 50.7073 228.152 48.8292 229.188 47.2927C230.225 45.7561 231.606 44.561 233.161 43.7073C234.715 42.8536 236.442 42.5122 238.169 42.5122C239.896 42.5122 241.278 42.6829 242.314 43.3658ZM235.751 49.5122C234.715 50.3658 234.024 51.7317 233.679 53.439C233.679 53.9512 233.506 54.2927 233.506 54.6341C233.506 55.8292 233.852 56.8536 234.542 57.5366C235.233 58.2195 236.269 58.561 237.478 58.561C238.86 58.561 240.069 58.0488 241.278 57.1951C242.314 56.1707 243.005 54.9756 243.351 53.439C243.351 52.9268 243.523 52.5853 243.523 52.2439C243.523 51.0488 243.178 50.0244 242.487 49.3414C241.796 48.6585 240.76 48.317 239.551 48.317C237.997 48.1463 236.788 48.4878 235.751 49.5122ZM246.632 35.3414C246.459 36.3658 245.769 37.2195 244.732 37.7317L236.27 41.1463L236.788 38.2439C236.96 37.2195 237.651 36.3658 238.687 35.8536L247.496 32.0975L246.632 35.3414Z" fill="#404F6C"/>
<path d="M273.057 44.561C274.784 46.0975 275.648 48.1463 275.648 50.878H268.567C268.567 50.0244 268.221 49.1707 267.703 48.6585C267.185 48.1463 266.321 47.8049 265.458 47.8049C264.249 47.8049 263.212 48.3171 262.349 49.1707C261.485 50.0244 260.795 51.3902 260.449 53.2683C260.276 53.7805 260.276 54.2927 260.276 54.9756C260.276 56.1707 260.622 57.1951 261.14 57.7073C261.658 58.3902 262.522 58.7317 263.558 58.7317C264.594 58.7317 265.458 58.3902 266.149 57.878C266.839 57.3658 267.358 56.6829 267.876 55.6585H274.957C273.921 58.3902 272.366 60.439 270.294 61.9756C268.048 63.5122 265.63 64.3658 262.694 64.3658C259.931 64.3658 257.686 63.5122 255.959 61.9756C254.231 60.439 253.368 58.2195 253.368 55.3171C253.368 54.6341 253.541 53.7805 253.713 52.5853C254.059 50.3658 254.922 48.4878 256.131 46.9512C257.34 45.4146 258.895 44.2195 260.622 43.3658C262.349 42.5122 264.421 42.1707 266.494 42.1707C269.085 42.3414 271.33 43.0244 273.057 44.561Z" fill="#404F6C"/>
<path d="M287.392 42.5121L283.938 61.9756C283.765 63.1707 282.556 64.1951 281.347 64.1951H276.857L280.311 44.7317C280.484 43.5365 281.693 42.5121 282.902 42.5121H287.392ZM282.383 34.1463C283.247 33.2926 284.456 32.9512 285.665 32.9512C286.701 32.9512 287.565 33.2926 288.083 33.8048C288.774 34.317 288.947 35 288.947 35.8536C288.947 37.0487 288.428 37.9024 287.565 38.7561C286.701 39.6097 285.665 39.9512 284.283 39.9512C283.247 39.9512 282.383 39.6097 281.693 39.0975C281.002 38.5853 280.829 37.9024 280.829 37.0487C281.002 35.8536 281.52 35 282.383 34.1463Z" fill="#404F6C"/>
<path d="M300 35.5122L295.337 61.4634C294.991 63 293.782 64.0244 292.228 64.0244H288.256L292.919 37.9024C293.264 36.3658 294.473 35.3414 296.028 35.3414L300 35.5122Z" fill="#404F6C"/>
<path d="M49.9153 15.878C49.9153 16.561 49.9153 18.0976 49.5699 20.1463C38.171 25.439 30.3989 28.8537 30.3989 28.8537C19.6908 33.4634 17.2729 34.3171 14.6822 37.7317C9.15541 45.0732 10.8825 54.2927 11.0552 55.8293C11.7461 59.5854 13.3005 62.8293 14.8549 65.0488C13.8186 69.4878 14.5095 73.4146 15.2003 75.9756C12.9551 74.9512 7.60101 72.0488 3.80135 65.9024C2.93779 64.7073 -1.72542 56.5122 0.692543 47.8049C1.90152 43.5366 3.97406 42 12.2642 33.9756C12.2642 33.9756 23.8359 22.878 37.9982 7.85366C41.2798 4.43902 43.6977 1.70732 45.4248 0C46.8065 2.39024 50.0881 8.19512 49.9153 15.878Z" fill="#EA1F4C"/>
<path d="M59.5854 91.3414C57.5129 93.2195 55.2676 94.5853 52.8497 95.7804C47.6683 98.1707 41.7961 98.8536 36.7875 96.9756C31.4334 95.0975 28.4973 91.1707 27.6338 90.1463C25.9067 87.7561 24.6977 85.1951 24.1795 82.9756C23.4887 76.6585 26.2521 71.5365 27.1156 70C30.2245 64.5365 34.715 61.9756 36.7875 60.7804C44.0414 57.3658 51.2953 54.1219 58.5492 50.7073C59.5854 57.878 56.4766 63.5122 55.0949 66.2439C51.9861 72.0487 47.4956 75.2926 45.2504 76.8292C46.2866 77.8536 47.3229 78.878 48.1865 79.9024C51.9861 83.6585 55.7858 87.4146 59.5854 91.3414Z" fill="#36365A"/>
<path d="M49.5682 20.1464C49.2228 22.7073 48.3592 25.9512 46.4594 29.3659C43.5233 35 41.4508 36.7073 31.0881 45.9268C18.4801 57.1951 15.8895 60.439 15.0259 63.5122C14.8532 64.0244 14.8532 64.5366 14.6805 64.8781C13.1261 62.4878 11.7444 59.4146 10.8808 55.6586C10.5354 54.122 8.98099 44.9025 14.5078 37.561C17.0984 34.1464 19.5164 33.2927 30.2245 28.6829C30.3972 28.8537 38.1693 25.6098 49.5682 20.1464Z" fill="url(#paint0_linear_80_41)"/>
<path d="M58.5493 50.7073C51.2954 54.122 44.0415 57.3659 36.7876 60.7805C34.7151 61.8049 30.2246 64.5366 27.1158 70C26.2522 71.5366 23.6615 76.6585 24.1797 82.9756C23.1434 78.7073 23.4888 75.122 23.6615 73.5854C24.6978 67.439 27.9793 63.3415 29.5337 61.6341C34.5424 56.5122 39.551 51.561 44.5596 46.439C47.1503 43.8781 49.741 41.3171 52.3317 38.7561C53.0225 39.439 54.2315 40.6342 55.2678 42.1707C56.4767 44.0488 57.6857 46.439 58.3766 49.3415C58.3766 49.6829 58.3766 50.1951 58.5493 50.7073Z" fill="url(#paint1_linear_80_41)"/>
</g>
<defs>
<linearGradient id="paint0_linear_80_41" x1="60.8451" y1="-15.9381" x2="17.5553" y2="56.631" gradientUnits="userSpaceOnUse">
<stop stop-color="#36365A"/>
<stop offset="1" stop-color="#EA1F4C"/>
</linearGradient>
<linearGradient id="paint1_linear_80_41" x1="23.3439" y1="60.7928" x2="58.5014" y2="60.7928" gradientUnits="userSpaceOnUse">
<stop stop-color="#36365A"/>
<stop offset="1" stop-color="#EA1F4C"/>
</linearGradient>
<clipPath id="clip0_80_41">
<rect width="300" height="98" fill="white"/>
</clipPath>
</defs>
</svg>
