<svg width="41" height="41" viewBox="0 0 41 41" fill="none" xmlns="http://www.w3.org/2000/svg">
<path d="M34.2668 38.0311C34.2668 45.4168 28.2795 51.404 20.8939 51.404C13.5082 51.404 7.521 45.4168 7.521 38.0311M26.5301 18.522C26.5301 21.6348 24.0067 24.1582 20.8938 24.1582C17.781 24.1582 15.2576 21.6348 15.2576 18.522C15.2576 15.4091 17.781 12.8857 20.8938 12.8857C24.0067 12.8857 26.5301 15.4091 26.5301 18.522ZM23.8377 24.4712C26.0258 23.3863 27.5301 21.1298 27.5301 18.522C27.5301 14.8569 24.5589 11.8857 20.8938 11.8857C17.2287 11.8857 14.2576 14.8569 14.2576 18.522C14.2576 21.1298 15.7618 23.3863 17.95 24.4712C12.7279 25.5995 8.60064 29.6677 7.38587 34.8572C3.7353 31.3247 1.4668 26.375 1.4668 20.8948C1.4668 10.1656 10.1646 1.46777 20.8939 1.46777C31.6232 1.46777 40.3209 10.1656 40.3209 20.8948C40.3209 26.3749 38.0525 31.3247 34.4019 34.8571C33.1871 29.6677 29.0597 25.5995 23.8377 24.4712ZM20.8939 40.3219C16.0615 40.3219 11.6421 38.5582 8.24283 35.6385C9.36395 29.6724 14.6022 25.1582 20.8938 25.1582C27.1855 25.1582 32.4238 29.6724 33.5449 35.6385C30.1456 38.5581 25.7263 40.3219 20.8939 40.3219Z" stroke="#B62D7F"/>
</svg>
